# xmcd
#
# Track frame offsets: 
#        150
#        16077
#        35477
#        54956
#        75393
#        92214
#        114012
#        136846
#        154841
#        172998
#        193391
#        211889
#        231619
#        249306
#        265846
#        284697
#        301892
#        316084
#        330750
#        342797
#
# Disc length: 4795 seconds
#
# Revision: 0
# Processed by: cddbd v1.5.2PL0 Copyright (c) Steve Scherf et al.
# Submitted via: ExactAudioCopy v0.99pb4
#
DISCID=0312b914
DTITLE=Various Artist - prevue promo 1101A-3
DYEAR=2002
DGENRE=pop
TTITLE0=Cranberries - Stars
TTITLE1=Stereo Fuse - Everything(New Edit)
TTITLE2=Stereo Fuse - Everything(Original Acoustic)
TTITLE3=Creed - Don't Stop Dancing(Album Version)
TTITLE4=Creed - Don't Stop Dancing(Acoustic Version)
TTITLE5=U2 (Bono) - Staring At The Sun(New Mix)
TTITLE6=Mark Mcguinn - More Beautiful Today
TTITLE7=Juanes and Nelly Furtado - Fotografia
TTITLE8=Angie Martinez and Kelis - Take You Home
TTITLE9=Choppa and Master P - Choppa Style(Lyrics!- "Clean")
TTITLE10=Baby and P. Diddy - Do That
TTITLE11=Anders Osborne and Big Chief Monk Boudreaux - Junko Partner
TTITLE12=Zero 7 and Sophie Barker - In The Waiting Line
TTITLE13=Carrie Newcomer and Alison Krauss - Gathering Of Spirits, The
TTITLE14=Ellis Paul - Sweet Mistakes
TTITLE15=Gene - Let Me Move On
TTITLE16=Trust Company - Running From Me
TTITLE17=Piebald - American Hearts
TTITLE18=Sum 41 - Still Waiting
TTITLE19=System Of A Down - Psycho(Amended Album Version)
EXTD=
EXTT0=
EXTT1=
EXTT2=
EXTT3=
EXTT4=
EXTT5=
EXTT6=
EXTT7=
EXTT8=
EXTT9=
EXTT10=
EXTT11=
EXTT12=
EXTT13=
EXTT14=
EXTT15=
EXTT16=
EXTT17=
EXTT18=
EXTT19=
PLAYORDER=
